<svg width="247" height="247" fill="none" xmlns="http://www.w3.org/2000/svg"><circle cx="123.5" cy="123.5" r="123.5" fill="#4A88E5" fill-opacity=".15"/><mask id="imageloanwoman3_mask0_83468_34068" style="mask-type:alpha" maskUnits="userSpaceOnUse" x="0" y="0" width="247" height="247"><circle cx="123.5" cy="123.5" r="123.5" fill="#C4C4C4"/></mask><g mask="url(#imageloanwoman3_mask0_83468_34068)"><path d="M155.463 41.195s-10.68-7.582-43.657-4.779c-8.591.707-17.445 2.251-25.73 4.618-18.767 5.883-30.666 23.578-28.39 42.41C60.267 103.935 70 120.693 84.4 134.593c4.518 4.36 9.585 8.434 14.643 11.952 20.217 13.242 76.354-61.02 76.354-61.02s15.92-9.994 15.933-24.981c.11-9.438-4.149-14.914-16.406-17.472-4.182-1.037-11.965-1.732-19.461-1.877z" fill="#323232"/><path d="M102.838 94.303c21.265-5.926 43.005-32.121 43.005-32.121s15.586 2.5 22.814 3.205c7.506.7 8.947 3.727 9.61 9.821 1.355 13.853.461 26.08 1.261 39.943.454 9.983.319 18.034-4.513 27.278-2.687 5.043-6.502 8.996-10.892 11.849-4.39 2.853-9.657 3.223-15.483 3.326-3.607.064-6.387-.164-6.387-.164s-.042 13.322.27 15.259c.039 2.22.619 3.597 2.021 4.405 1.397.53 11.989 3.119 11.989 3.119l3.621.768s-10.735 20.727-42.116 19.617c-31.37-.556-38.893-17.907-38.893-17.907s7.16-3.18 9.885-6.003c2.185-1.982 5.153-6.752 5.61-12.311 1.434-13.07 4.733-61.974 4.733-61.974l3.465-8.11z" fill="#FFD8EA"/><path fill-rule="evenodd" clip-rule="evenodd" d="M161.889 101.467a1.043 1.043 0 011.176.891c.421 3.062 1.387 6.281 2.512 9.472a211.132 211.132 0 001.74 4.704l.014.037c.575 1.517 1.138 3.002 1.632 4.415.342.92.417 1.794.143 2.579-.278.795-.856 1.331-1.49 1.681-1.203.666-2.85.797-4.118.797h-5v-2.086h5c1.231 0 2.406-.148 3.109-.537.32-.177.466-.362.529-.544.067-.189.102-.544-.132-1.17l-.004-.011-.003-.01a179.903 179.903 0 00-1.623-4.389l-.008-.022a211.632 211.632 0 01-1.757-4.75c-1.14-3.234-2.161-6.61-2.611-9.882a1.041 1.041 0 01.891-1.175zM158.498 125v-1.043a1.043 1.043 0 100 2.086V125z" fill="#323232"/><path d="M172.072 101.681c.024 1.388.648 5.262-1.849 5.306-3.052.054-2.58-4.672-2.6-5.782-.025-1.387.788-2.512 2.453-2.541 1.392.253 1.971 1.63 1.996 3.017zm-34.115 1.16c.025 1.387 1.203 5.252-1.839 5.861-3.052.054-2.863-4.945-2.882-6.055-.025-1.387 1.343-2.522 2.453-2.541 2.219-.039 2.254 1.903 2.268 2.735zm7.885-40.66s-5.255 16.745-35.786 32.272c0 0-7.165 5.388-8.195-2.44-1.476-4.97 5.333-33.867 31.592-39.881 7.189-1.515 14.661-2.757 21.889-2.053 3.334.219 7.233.983 10.047 3.153 2.531 1.898 2.868 5.223 2.921 8.275.064 3.607.128 7.213-.646 10.557-1.016 5.292-3.707 10.057-8.662 12.365-2.477 1.154-5.52 1.763-8.289 2.09-3.325.335-8.581 1.261-8.115-3.743.224-3.057 1.25-7.793 1.751-10.855.778-3.066 1.275-6.405 1.493-9.74z" fill="#323232"/><path d="M105.953 97.722s-4.238-10.271-12.334-9.311c-7.853 1.228-9.33 12.144-5.116 21.054 5.206 11.071 15.927 10.064 15.927 10.064" fill="#FFD8EA"/><path d="M75.312 117.812s-16.668.289-23.532 31.994c-6.864 31.705-.558 59.674-.558 59.674l26.812-21.892s2.976-40.161.712-64.389" fill="#323232"/><path d="M230.284 320.234c-3.702-12.965-7.367-36.888-13.287-64.086-5.284-20.418-9.292-40.476-17.723-50.361-12.375-19.367-40.763-27.847-40.763-27.847-5.387 7.297-15.816 16.207-33.053 17.726-29.976 2.012-41.965-16.998-41.965-16.998-4.54 1.425-12.45 4.186-16.63 6.049-5.858 2.495-15.841 6.2-21.088 9.806-10.495 7.211-16.672 21.096-18.951 33.098-1.703 11.26-1.345 22.094.116 30.543 2.662 17.476 1.56 28.954 6.749 45.764 2.583 8.123 9.631 43.686 21.804 43.215l174.791-26.909z" fill="#4A88E5"/><path d="M145.776 61.831s-7.526 18.586-39.708 33.718" stroke="#323232" stroke-width="2.079" stroke-miterlimit="10" stroke-linecap="round"/><path d="M71.22 119.785c1.05 1.77 4.043 6.115 7.619 9.332" stroke="#323232" stroke-width="2.772" stroke-linecap="round"/><path opacity=".7" d="M125.823 54.242c-6.933 1.81-18.973 11.537-22.377 16.739" stroke="#323232" stroke-width="2.212" stroke-linecap="round"/><path fill-rule="evenodd" clip-rule="evenodd" d="M93.869 102.015a1.064 1.064 0 011.382-.596c.92.365 2.077 1.048 3.248 1.819a72.808 72.808 0 013.606 2.563 128.755 128.755 0 013.872 3.031l.248.203.065.054.022.018c.001 0 .001.001-.678.821l.678-.821a1.065 1.065 0 11-1.357 1.64l-.02-.016-.062-.051-.241-.198a123.588 123.588 0 00-3.806-2.979 70.935 70.935 0 00-3.497-2.487c-1.154-.759-2.158-1.339-2.863-1.619a1.064 1.064 0 01-.597-1.382zm52.973 34.204c.329-.487.99-.616 1.478-.288l-.595.883.595-.883-.001-.001.017.011.09.056c.085.052.22.129.402.225.364.193.92.459 1.658.737 1.469.552 3.662 1.149 6.512 1.295 2.761-.075 5.815-.169 8.827-1.119a1.065 1.065 0 11.641 2.03c-3.332 1.051-6.672 1.142-9.402 1.217l-.091.002-.04-.002c-3.114-.154-5.538-.807-7.196-1.43a16.646 16.646 0 01-1.904-.847 11.197 11.197 0 01-.642-.369.576.576 0 01-.04-.026l-.013-.008-.005-.003-.001-.001c-.001-.001-.002-.001.593-.884l-.595.883a1.066 1.066 0 01-.288-1.478zm19.336-39.556h-.001l-.001.002-.002.001h.001l.019-.017c.021-.018.056-.048.107-.089.102-.08.265-.202.489-.348.448-.29 1.14-.675 2.08-1.017 1.872-.682 4.764-1.207 8.728-.439a1.064 1.064 0 00.405-2.09c-4.354-.844-7.637-.281-9.861.528a12.419 12.419 0 00-2.511 1.233 8.317 8.317 0 00-.831.612 3.644 3.644 0 00-.051.046l-.017.015-.006.006-.003.002-.001.001s-.001.001.714.763l-.715-.762a1.065 1.065 0 001.457 1.553zm-21.054-2.133l-.353.988.354-.987a1.065 1.065 0 01-.716 2.005h-.002l-.011-.005-.059-.02a17.153 17.153 0 00-1.274-.347 25.411 25.411 0 00-3.805-.57 28.116 28.116 0 00-12.459 1.89 1.064 1.064 0 01-.782-1.981 30.246 30.246 0 0113.402-2.032c1.731.131 3.142.39 4.127.62a19.358 19.358 0 011.456.398l.086.029.024.008.008.003.003.001h.001z" fill="#323232"/></g></svg>